HIERARCHY
ROOT Hips
{
     OFFSET 1.88212 96.90440 -13.34250
     CHANNELS 6 Xposition Yposition Zposition Zrotation Xrotation Yrotation
     JOINT Spine
     {
          OFFSET 0.00000 11.89050 0.00000
          CHANNELS 3 Zrotation Xrotation Yrotation
          JOINT Spine1
          {
               OFFSET -0.00000 25.65740 0.12766
               CHANNELS 3 Zrotation Xrotation Yrotation
               JOINT HEad
               {
                    OFFSET 0.00000 8.73416 0.01134
                    CHANNELS 3 Zrotation Xrotation Yrotation
                    End Site
                    {
                         OFFSET -0.29000 12.77420 2.51395
                    }
               }
               JOINT LeftShoulder1
               {
                    OFFSET 8.99000 -0.36225 -0.22000
                    CHANNELS 3 Zrotation Xrotation Yrotation
                    JOINT LeftArm
                    {
                         OFFSET 10.28270 -0.00338 0.32212
                         CHANNELS 3 Zrotation Xrotation Yrotation
                         JOINT LeftForeArm
                         {
                              OFFSET 32.76690 0.09914 -1.42434
                              CHANNELS 3 Zrotation Xrotation Yrotation
                              JOINT LeftHand
                              {
                                   OFFSET 27.56430 0.08536 1.02216
                                   CHANNELS 3 Zrotation Xrotation Yrotation
                                   End Site
                                   {
                                        OFFSET 16.74430 -0.60000 1.50291
                                   }
                              }
                         }
                    }
               }
               JOINT RightShoulder
               {
                    OFFSET -8.99000 -0.36225 -0.22000
                    CHANNELS 3 Zrotation Xrotation Yrotation
                    JOINT RightArm
                    {
                         OFFSET -10.28270 -0.00338 0.32212
                         CHANNELS 3 Zrotation Xrotation Yrotation
                         JOINT RightForeArm
                         {
                              OFFSET -32.89710 0.09914 -1.42434
                              CHANNELS 3 Zrotation Xrotation Yrotation
                              JOINT RightHand
                              {
                                   OFFSET -27.49210 0.08536 1.02216
                                   CHANNELS 3 Zrotation Xrotation Yrotation
                                   End Site
                                   {
                                        OFFSET -16.63120 -0.60000 1.50291
                                   }
                              }
                         }
                    }
               }
          }
     }
     JOINT LeftUpLeg
     {
          OFFSET 8.94580 -8.66707 0.10165
          CHANNELS 3 Zrotation Xrotation Yrotation
          JOINT LeftLeg
          {
               OFFSET 0.00000 -44.42270 1.37270
               CHANNELS 3 Zrotation Xrotation Yrotation
               JOINT LeftFoot
               {
                    OFFSET -0.25355 -42.09240 -1.46059
                    CHANNELS 3 Zrotation Xrotation Yrotation
                    JOINT LeftToes
                    {
                         OFFSET -0.04000 -4.41509 8.49910
                         CHANNELS 3 Zrotation Xrotation Yrotation
                         End Site
                         {
                              OFFSET 0.08000 -0.04745 9.77979
                         }
                    }
               }
          }
     }
     JOINT RightUpLeg
     {
          OFFSET -8.94580 -8.66707 0.10165
          CHANNELS 3 Zrotation Xrotation Yrotation
          JOINT RightLeg
          {
               OFFSET 0.00000 -44.42270 1.37270
               CHANNELS 3 Zrotation Xrotation Yrotation
               JOINT RightFoot
               {
                    OFFSET 0.25355 -42.09240 -1.46059
                    CHANNELS 3 Zrotation Xrotation Yrotation
                    JOINT RightToes
                    {
                         OFFSET 0.04000 -4.41509 8.49910
                         CHANNELS 3 Zrotation Xrotation Yrotation
                         End Site
                         {
                              OFFSET -0.08000 -0.13745 9.77979
                         }
                    }
               }
          }
     }
}
MOTION
Frames: 15
Frame Time: 0.01667
-49.48090 91.51894 69.96417 3.48732 -14.55109 14.94733 -4.84346 22.35969 -0.44384 0.00469 0.00748 -0.00440 -4.74528 10.07176 13.31810 2.33038 7.79088 1.54720 -134.35518 -65.75482 -107.28437 -44.63263 59.39719 -74.15786 17.61051 7.59009 -10.84360 16.36578 8.50622 -0.78810 82.45163 -1.79282 70.35822 11.97383 32.11930 105.99092 16.34744 11.59284 5.76976 20.07783 -2.44398 -1.39528 -30.19690 6.24219 58.90073 3.65537 0.00151 0.00024 8.78173 -14.33080 -63.31932 -29.00562 11.78036 19.01862 34.31075 11.53633 -33.28352 -29.01123 -0.05808 0.04033 13.10246 -44.73793 19.54574 
-48.98280 91.71950 70.28507 3.70160 -14.33766 15.04624 -5.23508 22.26535 -0.17299 0.00518 0.00703 -0.00488 -5.24693 10.04714 13.02402 2.56021 7.76988 1.11803 -131.84668 -65.40120 -104.85255 -43.42562 58.53061 -74.39147 17.53913 7.67551 -10.94242 16.56940 8.39006 -1.18197 82.27394 -1.50206 70.47684 11.68669 31.97050 106.14597 16.29821 11.58165 5.70144 20.18472 -3.17035 -4.66945 -31.05571 5.86248 62.25645 3.08269 0.00170 -0.00111 8.68434 -14.99598 -62.84515 -28.79487 12.50868 18.42357 38.38775 6.96813 -35.70475 -35.32978 -0.13546 -0.02192 15.15047 -45.30407 22.46426 
-48.51411 91.90144 70.66046 3.94752 -14.20355 15.14454 -5.50305 22.23510 0.01459 0.00532 0.00652 -0.00509 -5.74963 10.06292 12.75117 2.68353 7.75357 0.78076 -128.92744 -65.12034 -102.04372 -42.05709 57.54274 -74.85094 17.40246 7.87911 -11.06654 16.74857 8.28872 -1.54158 82.02842 -1.23059 70.51148 11.35651 31.82765 106.41881 16.15981 11.54513 5.70974 20.64044 -4.20326 -8.90207 -31.60698 4.93460 66.12408 2.74093 -0.00499 -0.00602 8.15443 -14.80440 -62.20158 -28.72651 13.16407 17.86717 39.56711 4.72294 -37.41732 -30.33842 0.08997 0.02278 9.28535 -46.39880 25.23215 
-48.09006 92.01453 71.07298 4.17336 -14.15507 15.22588 -5.58426 22.24810 0.12549 0.00677 0.00603 -0.00469 -6.24088 10.12071 12.50347 2.89022 7.71469 0.54348 -125.96041 -64.93353 -99.08757 -40.72816 56.48812 -75.43367 17.20899 8.16074 -11.43767 17.04024 8.17783 -1.82175 81.65053 -1.01714 70.42934 10.99684 31.70300 106.77792 15.85126 11.46525 5.76927 21.09706 -5.68587 -13.98060 -31.24114 5.16083 69.38267 0.76039 -0.01902 0.02531 7.97412 -13.64399 -60.14835 -28.82565 13.77508 17.36851 39.77313 3.76412 -38.84971 -24.03258 0.11880 0.02638 3.63399 -47.62679 27.79004 
-47.68497 92.02986 71.53682 4.35246 -14.19571 15.26970 -5.19413 21.91428 0.08310 0.00485 0.00977 -0.00411 -6.95217 10.59349 12.32889 2.91591 8.01986 0.32496 -123.13651 -64.87823 -96.25652 -39.54817 55.41191 -76.02987 17.00265 8.41704 -11.72415 17.13475 8.40270 -2.13392 81.27859 -0.82210 70.25293 10.60727 31.60341 107.16653 15.58079 11.42088 5.83660 21.36327 -7.22880 -18.70160 -29.06652 6.33664 71.05789 -3.15799 -0.09229 0.09444 8.72350 -10.59161 -57.09121 -29.01613 14.31242 16.93283 39.52621 3.70463 -40.09660 -16.96416 0.12038 0.02597 -2.09914 -48.97477 29.94488 
-47.22599 91.94139 72.07384 4.46815 -14.32494 15.26440 -4.36453 21.31083 -0.08787 0.00230 0.01344 -0.00349 -7.83990 11.39430 12.23954 2.77693 8.58431 0.11531 -120.53383 -64.95264 -93.66801 -38.56343 54.34935 -76.57094 16.78816 8.65390 -12.10063 17.00896 8.88172 -2.46617 80.99194 -0.60741 70.01904 10.19135 31.53066 107.52892 15.27320 11.38031 5.91064 21.50760 -8.82748 -23.05562 -27.73847 7.43792 73.11414 -6.14782 -0.06179 0.05819 9.16618 -7.93211 -54.41909 -29.21712 14.75038 16.55351 39.13173 4.29221 -41.21188 -9.48728 0.11599 0.02600 -7.89293 -50.49403 31.85046 
-46.63958 91.75272 72.69943 4.51118 -14.53613 15.20680 -3.13621 20.49618 -0.36912 -0.00048 0.01672 -0.00296 -8.86208 12.44541 12.24444 2.47354 9.33957 -0.08850 -118.18710 -65.15044 -91.38454 -37.77801 53.33820 -77.02174 16.58753 8.82449 -12.37782 16.65920 9.55091 -2.80462 80.82655 -0.35626 69.76101 9.76453 31.48439 107.82347 15.05067 11.36056 5.97663 21.58763 -10.46081 -27.04063 -26.80132 8.53444 75.28323 -8.79381 -0.05003 0.04529 9.55899 -5.15464 -51.80887 -29.38762 15.07740 16.22131 38.71993 5.39778 -42.21981 -1.76973 0.11112 0.02685 -13.77640 -52.10476 33.47982 
-45.89187 91.46995 73.41080 4.47319 -14.81475 15.10034 -1.55381 19.51088 -0.75114 -0.00343 0.01969 -0.00251 -9.97922 13.67926 12.35014 1.99666 10.23441 -0.28670 -116.13018 -65.46836 -89.45463 -37.17354 52.42272 -77.37373 16.40549 8.94662 -12.66477 16.09720 10.36344 -3.13252 80.78341 -0.06889 69.50792 9.35903 31.46097 108.01657 14.86860 11.32233 6.03230 21.55931 -12.02509 -30.68131 -24.42954 9.34506 75.90485 -15.89510 -0.29357 0.09885 14.57171 -0.45916 -48.38465 -29.51198 15.28553 15.92268 38.33765 6.94833 -43.12603 6.11232 0.10766 0.02772 -19.67964 -53.76599 34.90688 
-44.97855 91.10444 74.19643 4.34814 -15.14177 14.94705 0.32752 18.38404 -1.22472 -0.00654 0.02246 -0.00210 -11.15362 15.03729 12.56227 1.33720 11.23100 -0.47612 -114.39810 -65.90462 -87.91953 -36.71916 51.64141 -77.62775 16.25547 8.99490 -12.85363 15.34089 11.28542 -3.43516 80.84721 0.25140 69.28418 9.01465 31.45779 108.08049 14.79801 11.27679 6.06810 21.45634 -13.48323 -33.98518 -22.98244 10.57007 76.97905 -15.32263 0.00407 0.01008 11.73809 2.75899 -45.24019 -29.58870 15.36823 15.64686 38.00280 8.87796 -43.92629 14.10937 0.10552 0.02745 -25.61204 -55.43436 36.11632 
-43.92722 90.66740 75.03297 4.13625 -15.49799 14.74809 2.16558 17.50646 -1.64740 -0.00661 0.02116 -0.00241 -12.04096 16.12970 12.75575 0.78805 11.94479 -0.67475 -112.99995 -66.44064 -86.77395 -36.38849 51.01448 -77.79900 16.14305 8.97740 -13.01836 14.68341 11.93550 -3.68093 80.97998 0.60994 69.09350 8.77119 31.47397 108.02089 14.80237 11.21591 6.08105 21.24748 -14.75910 -36.97425 -20.11627 11.68702 77.03768 -22.70133 -0.31155 0.11819 16.59169 7.58530 -41.97232 -29.62027 15.32323 15.38624 37.72136 11.11120 -44.61712 22.17325 0.10400 0.02520 -31.59723 -57.10976 37.10814 
-42.77185 90.17549 75.89807 3.84429 -15.86685 14.50152 3.95774 16.84207 -2.03560 -0.00666 0.01963 -0.00281 -12.65528 16.97931 12.92447 0.31115 12.41548 -0.88169 -111.93501 -67.06499 -86.00905 -36.15826 50.54430 -77.90464 16.07121 8.88423 -13.10090 14.09790 12.35119 -3.88916 81.15620 0.99345 68.93142 8.65054 31.50932 107.85330 14.90330 11.16283 6.06625 20.98026 -15.85103 -39.64545 -18.47016 13.29508 77.62148 -21.70034 0.00976 0.01006 12.79258 10.26723 -39.07267 -29.61024 15.15275 15.13896 37.49078 13.56268 -45.20090 30.25117 0.10218 0.02042 -37.66471 -58.79237 37.87925 
-41.53823 89.64922 76.77852 3.48557 -16.23565 14.19775 5.68517 16.36264 -2.38937 -0.00690 0.01807 -0.00321 -13.01810 17.61296 13.07148 -0.12785 12.68162 -1.08723 -111.19052 -67.76479 -85.60134 -36.01611 50.22657 -77.95869 16.04176 8.72682 -13.15625 13.55745 12.57034 -4.06685 81.36031 1.38729 68.79243 8.65359 31.56070 107.59940 15.05947 11.13216 6.01906 20.69900 -16.80531 -41.98451 -17.50381 15.16247 78.47268 -24.97935 -0.05876 0.03840 13.27121 12.27346 -37.03008 -29.56859 14.87783 14.91593 37.29198 16.13983 -45.67251 38.29380 0.09915 0.01333 -43.79529 -60.46396 38.45930 
-40.36775 90.04559 77.57278 3.13949 -16.56878 13.88851 7.74414 15.89282 -3.01607 0.02707 0.00569 -0.01496 -13.65058 18.55861 13.66784 2.34480 10.86954 -2.49062 -109.22547 -70.07030 -81.61087 -35.55017 50.07210 -79.01418 14.10393 12.48483 -15.32760 16.09052 11.09879 -4.03704 77.06886 0.17175 67.33532 8.53182 31.96011 107.09866 13.23154 13.89770 1.10172 20.03618 -17.17021 -43.97361 -17.62874 17.13894 78.71084 -27.99351 -0.05408 -0.02516 13.47039 12.45514 -34.75499 -29.05434 14.26857 14.31280 36.24723 17.84031 -44.90466 40.00437 -0.01510 0.02521 -41.51184 -55.88514 37.35927 
-39.36720 90.09403 78.17500 2.75453 -16.89478 13.57160 10.12851 15.49216 -3.94805 0.02625 0.00757 -0.01902 -14.52494 19.77217 14.70365 6.61692 7.45467 -4.71255 -104.65940 -73.73289 -73.72284 -34.74276 50.03765 -80.99392 11.50368 17.96511 -17.65704 20.56999 8.40123 -3.70448 69.35715 -1.80958 65.01044 8.47401 32.63190 106.34845 11.42326 17.63445 -6.32234 19.14535 -17.01394 -45.60396 -18.46350 19.06210 78.31633 -30.65874 -0.03948 -0.05785 13.71798 10.89994 -32.52045 -28.06917 13.23062 13.34153 34.73074 18.95689 -43.15382 37.18909 0.02312 0.02714 -35.65717 -47.69069 33.18942 
-38.48448 90.03822 78.62821 2.34092 -17.18521 13.22728 12.42368 15.08104 -4.84928 -0.00190 0.00258 -0.00315 -15.19876 21.25502 15.93662 9.31857 4.95321 -6.04566 -97.27851 -76.65990 -65.88819 -33.70230 49.93006 -83.49672 8.43390 23.96122 -19.21167 23.62591 6.51358 -3.30848 62.05178 -4.05899 63.47313 8.49255 33.60381 105.49930 8.43769 18.28501 -8.76177 18.21731 -16.56844 -46.78315 -19.54799 20.52614 77.17818 -30.05356 0.00559 0.01565 11.49709 8.16781 -30.24553 -26.78296 11.72084 12.07204 33.06478 20.01207 -40.51197 31.38651 0.11609 0.02600 -27.81228 -37.46416 26.59168 
